<svg width="30" height="25" viewBox="0 0 30 25" fill="none" xmlns="http://www.w3.org/2000/svg">
<path d="M18.6394 8.93002L17.6847 9.88474H19.0349H22.429C22.4476 9.88474 22.4654 9.89211 22.4785 9.90522C22.4916 9.91833 22.4989 9.93611 22.4989 9.95465C22.4989 9.97319 22.4916 9.99097 22.4785 10.0041C22.4654 10.0172 22.4476 10.0246 22.429 10.0246H17.5156C17.4772 10.0246 17.4457 9.99308 17.4457 9.95465V5.0404C17.4457 5.02186 17.4531 5.00407 17.4662 4.99096C17.4793 4.97785 17.4971 4.97049 17.5156 4.97049C17.5342 4.97049 17.5519 4.97785 17.5651 4.99096C17.5782 5.00407 17.5855 5.02186 17.5855 5.0404V8.43625V9.78643L18.5403 8.83171L23.3337 4.03823C23.3467 4.02651 23.3636 4.02006 23.3812 4.0202C23.3995 4.02035 23.417 4.0277 23.43 4.04065C23.443 4.05361 23.4503 4.07114 23.4505 4.08947C23.4507 4.10696 23.4442 4.12385 23.4326 4.13682L18.6394 8.93002ZM11.3585 16.0127L12.3132 15.0579H10.963H7.56883C7.55029 15.0579 7.53251 15.0506 7.5194 15.0375C7.50629 15.0243 7.49892 15.0066 7.49892 14.988C7.49892 14.9695 7.50629 14.9517 7.5194 14.9386C7.53251 14.9255 7.55029 14.9181 7.56883 14.9181H12.4822C12.5008 14.9181 12.5186 14.9255 12.5317 14.9386C12.5448 14.9517 12.5522 14.9695 12.5522 14.988V19.9014C12.5522 19.92 12.5448 19.9378 12.5317 19.9509C12.5186 19.964 12.5008 19.9713 12.4822 19.9713C12.4637 19.9713 12.4459 19.964 12.4328 19.9509C12.4197 19.9378 12.4123 19.92 12.4123 19.9014V16.5064V15.1562L11.4576 16.111L6.65913 20.9095L6.65907 20.9094L6.65213 20.9166C6.64569 20.9232 6.63798 20.9286 6.62945 20.9322C6.62092 20.9359 6.61175 20.9378 6.60247 20.9379C6.59319 20.938 6.58398 20.9363 6.57539 20.9327C6.5668 20.9292 6.55899 20.924 6.55242 20.9175C6.54585 20.9109 6.54066 20.9031 6.53714 20.8945C6.53362 20.8859 6.53185 20.8767 6.53192 20.8675C6.532 20.8582 6.53392 20.849 6.53758 20.8405C6.54124 20.8319 6.54657 20.8242 6.55324 20.8178L6.55329 20.8178L6.55998 20.8111L11.3585 16.0127Z" fill="black" stroke="white" stroke-width="1.11853"/>
</svg>
